<svg width="32" height="21" viewBox="0 0 32 21" fill="none" xmlns="http://www.w3.org/2000/svg">
<path fill-rule="evenodd" clip-rule="evenodd" d="M31.3654 10.4286C31.3654 10.1339 31.2483 9.85129 31.0399 9.64291C30.8315 9.43454 30.5489 9.31748 30.2542 9.31748H4.04758L11.0409 2.32637C11.1442 2.22306 11.2262 2.10042 11.2821 1.96544C11.338 1.83046 11.3668 1.6858 11.3668 1.5397C11.3668 1.3936 11.338 1.24894 11.2821 1.11396C11.2262 0.978982 11.1442 0.856339 11.0409 0.753033C10.9376 0.649726 10.815 0.567779 10.68 0.51187C10.545 0.455961 10.4003 0.427185 10.2542 0.427185C10.1081 0.427185 9.96348 0.455961 9.8285 0.51187C9.69353 0.567779 9.57088 0.649726 9.46758 0.753033L0.578689 9.64192C0.475215 9.74513 0.39312 9.86775 0.337106 10.0027C0.281091 10.1377 0.252258 10.2824 0.252258 10.4286C0.252258 10.5747 0.281091 10.7194 0.337106 10.8544C0.39312 10.9894 0.475215 11.112 0.578689 11.2153L9.46758 20.1041C9.57088 20.2074 9.69353 20.2894 9.8285 20.3453C9.96348 20.4012 10.1081 20.43 10.2542 20.43C10.4003 20.43 10.545 20.4012 10.68 20.3453C10.815 20.2894 10.9376 20.2074 11.0409 20.1041C11.1442 20.0008 11.2262 19.8782 11.2821 19.7432C11.338 19.6082 11.3668 19.4636 11.3668 19.3175C11.3668 19.1714 11.338 19.0267 11.2821 18.8917C11.2262 18.7568 11.1442 18.6341 11.0409 18.5308L4.04758 11.5397H30.2542C30.5489 11.5397 30.8315 11.4226 31.0399 11.2143C31.2483 11.0059 31.3654 10.7233 31.3654 10.4286Z" fill="white" fill-opacity="0.6"/>
</svg>
