<svg width="33" height="21" viewBox="0 0 33 21" fill="none" xmlns="http://www.w3.org/2000/svg">
<path fill-rule="evenodd" clip-rule="evenodd" d="M0.905041 10.4286C0.905041 10.1339 1.0221 9.85126 1.23048 9.64288C1.43885 9.43451 1.72147 9.31745 2.01615 9.31745H28.2228L21.2295 2.32634C21.1262 2.22303 21.0442 2.10039 20.9883 1.96541C20.9324 1.83043 20.9036 1.68577 20.9036 1.53967C20.9036 1.39357 20.9324 1.2489 20.9883 1.11393C21.0442 0.978952 21.1262 0.856309 21.2295 0.753002C21.3328 0.649696 21.4554 0.567749 21.5904 0.51184C21.7254 0.455931 21.8701 0.427155 22.0161 0.427155C22.1622 0.427155 22.3069 0.455931 22.4419 0.51184C22.5769 0.567749 22.6995 0.649696 22.8028 0.753002L31.6917 9.64189C31.7952 9.7451 31.8773 9.86772 31.9333 10.0027C31.9893 10.1377 32.0181 10.2824 32.0181 10.4286C32.0181 10.5747 31.9893 10.7194 31.9333 10.8544C31.8773 10.9894 31.7952 11.112 31.6917 11.2152L22.8028 20.1041C22.6995 20.2074 22.5769 20.2894 22.4419 20.3453C22.3069 20.4012 22.1622 20.43 22.0161 20.43C21.8701 20.43 21.7254 20.4012 21.5904 20.3453C21.4554 20.2894 21.3328 20.2074 21.2295 20.1041C21.1262 20.0008 21.0442 19.8782 20.9883 19.7432C20.9324 19.6082 20.9036 19.4635 20.9036 19.3174C20.9036 19.1713 20.9324 19.0267 20.9883 18.8917C21.0442 18.7567 21.1262 18.6341 21.2295 18.5308L28.2228 11.5397H2.01615C1.72147 11.5397 1.43885 11.4226 1.23048 11.2142C1.0221 11.0059 0.905041 10.7232 0.905041 10.4286Z" fill="white"/>
</svg>
